<?xml version="1.0" encoding="utf-8"?>
<!-- Generator: Adobe Illustrator 27.5.0, SVG Export Plug-In . SVG Version: 6.00 Build 0)  -->
<svg version="1.1" xmlns="http://www.w3.org/2000/svg" xmlns:xlink="http://www.w3.org/1999/xlink" x="0px" y="0px"
	 viewBox="0 0 1000 750" style="enable-background:new 0 0 1000 750;" xml:space="preserve">
<g id="Background">
	<rect style="fill:#FFFFFF;" width="1000" height="750"/>
</g>
 
<g id="Object">
	<g>
		<path style="fill:#F2F2F2;" d="M561.666,313.914c-42.95,0.256-86.567-1.743-127.365-13.07
			c-40.798-11.327-76.88-32.7-109.682-57.66c-21.475-16.247-41.003-29.163-68.885-27.216c-27.262,1.433-53.338,11.604-74.369,29.009
			c-35.467,31.06-30.086,88.463-15.94,128.851c21.321,60.838,86.208,103.071,141.306,130.594
			c63.708,31.828,133.669,50.331,203.835,60.94c61.504,9.328,140.486,16.145,193.738-24.038
			c48.947-36.851,62.375-121.112,50.382-178.003c-2.922-16.803-11.865-31.965-25.165-42.643
			c-34.391-25.114-85.644-8.354-124.289-7.483C591.137,313.504,576.324,313.863,561.666,313.914z"/>
		<path style="fill:none;stroke:#CFCFCF;stroke-width:4.3565;stroke-linecap:round;stroke-linejoin:round;" d="M352.245,115v22.039"
			/>
		<path style="fill:none;stroke:#CFCFCF;stroke-width:4.3565;stroke-linecap:round;stroke-linejoin:round;" d="M341.225,126.019
			h22.039"/>
		<path style="fill:none;stroke:#CFCFCF;stroke-width:4.3565;stroke-linecap:round;stroke-linejoin:round;" d="M770.37,554.293
			v22.039"/>
		<path style="fill:none;stroke:#CFCFCF;stroke-width:4.3565;stroke-linecap:round;stroke-linejoin:round;" d="M759.35,565.312
			h22.039"/>
		<path style="fill:#CFCFCF;" d="M185.723,459.115c2.774,0,5.023-2.249,5.023-5.023s-2.249-5.023-5.023-5.023
			c-2.774,0-5.023,2.249-5.023,5.023S182.948,459.115,185.723,459.115z"/>
		<path style="fill:#CFCFCF;" d="M613.381,137.757c2.773,0,5.023-2.249,5.023-5.023c0-2.774-2.25-5.023-5.023-5.023
			s-5.023,2.249-5.023,5.023C608.358,135.507,610.608,137.757,613.381,137.757z"/>
		<path style="fill:#F2F2F2;" d="M474.177,665c103.885,0,188.1-5.233,188.1-11.686s-84.214-11.686-188.1-11.686
			c-103.885,0-188.1,5.233-188.1,11.686S370.292,665,474.177,665z"/>
		<path style="fill:#FFFFFF;stroke:#BABABA;stroke-width:5.1253;stroke-linecap:round;stroke-linejoin:round;" d="M329.283,174.864
			h273.18c6.796,0,13.316,2.7,18.123,7.506c4.802,4.806,7.503,11.324,7.503,18.121v324.998c0,6.796-2.701,13.316-7.503,18.123
			c-4.808,4.802-11.327,7.503-18.123,7.503H294.277c-6.797,0-13.315-2.701-18.121-7.503c-4.806-4.808-7.506-11.327-7.506-18.123
			V236.112L329.283,174.864z"/>
		<path style="fill:#D2D2D2;" d="M626.86,333.237H345.172v221.005H626.86V333.237z"/>
		<path style="fill:#FFFFFF;stroke:#BABABA;stroke-width:5.1253;stroke-linecap:round;stroke-linejoin:round;" d="M268.65,236.112
			h49.665c2.914-0.013,5.703-1.18,7.759-3.245c2.056-2.066,3.21-4.86,3.21-7.774v-50.228L268.65,236.112z"/>
		<path style="fill:#FFFFFF;stroke:#BABABA;stroke-width:5.1253;stroke-linecap:round;stroke-linejoin:round;" d="M625.476,262.661
			H346.863c-10.841,0-19.63,8.789-19.63,19.63v59.608c0,10.842,8.789,19.63,19.63,19.63h278.613c10.84,0,19.63-8.788,19.63-19.63
			v-59.608C645.107,271.45,636.317,262.661,625.476,262.661z"/>
		<path style="fill:#D2D2D2;" d="M381.357,329.342c9.454,0,17.119-7.664,17.119-17.119s-7.664-17.119-17.119-17.119
			c-9.455,0-17.119,7.664-17.119,17.119S371.902,329.342,381.357,329.342z"/>
		<path style="fill:#D2D2D2;" d="M435.173,329.342c9.454,0,17.119-7.664,17.119-17.119s-7.664-17.119-17.119-17.119
			c-9.455,0-17.119,7.664-17.119,17.119S425.718,329.342,435.173,329.342z"/>
		<path style="fill:#D2D2D2;" d="M488.937,329.342c9.454,0,17.119-7.664,17.119-17.119s-7.664-17.119-17.119-17.119
			c-9.455,0-17.119,7.664-17.119,17.119S479.483,329.342,488.937,329.342z"/>
		<path style="fill:#FFFFFF;stroke:#BABABA;stroke-width:5.1253;stroke-linecap:round;stroke-linejoin:round;" d="M625.476,372.241
			H346.863c-10.841,0-19.63,8.788-19.63,19.63v59.608c0,10.841,8.789,19.63,19.63,19.63h278.613c10.84,0,19.63-8.789,19.63-19.63
			v-59.608C645.107,381.029,636.317,372.241,625.476,372.241z"/>
		<path style="fill:#D2D2D2;" d="M381.357,438.973c9.454,0,17.119-7.664,17.119-17.119c0-9.454-7.664-17.119-17.119-17.119
			c-9.455,0-17.119,7.664-17.119,17.119C364.238,431.308,371.902,438.973,381.357,438.973z"/>
		<path style="fill:#D2D2D2;" d="M435.173,438.973c9.454,0,17.119-7.664,17.119-17.119c0-9.454-7.664-17.119-17.119-17.119
			c-9.455,0-17.119,7.664-17.119,17.119C418.054,431.308,425.718,438.973,435.173,438.973z"/>
		<path style="fill:#D2D2D2;" d="M488.937,438.973c9.454,0,17.119-7.664,17.119-17.119c0-9.454-7.664-17.119-17.119-17.119
			c-9.455,0-17.119,7.664-17.119,17.119C471.819,431.308,479.483,438.973,488.937,438.973z"/>
		<path style="fill:#FFFFFF;stroke:#BABABA;stroke-width:5.1253;stroke-linecap:round;stroke-linejoin:round;" d="M625.476,481.872
			H346.863c-10.841,0-19.63,8.788-19.63,19.63v59.608c0,10.84,8.789,19.63,19.63,19.63h278.613c10.84,0,19.63-8.79,19.63-19.63
			v-59.608C645.107,490.66,636.317,481.872,625.476,481.872z"/>
		<path style="fill:#D2D2D2;" d="M381.357,548.552c9.454,0,17.119-7.662,17.119-17.119c0-9.454-7.664-17.119-17.119-17.119
			c-9.455,0-17.119,7.664-17.119,17.119C364.238,540.89,371.902,548.552,381.357,548.552z"/>
		<path style="fill:#D2D2D2;" d="M435.173,548.552c9.454,0,17.119-7.662,17.119-17.119c0-9.454-7.664-17.119-17.119-17.119
			c-9.455,0-17.119,7.664-17.119,17.119C418.054,540.89,425.718,548.552,435.173,548.552z"/>
		<path style="fill:#D2D2D2;" d="M488.937,548.552c9.454,0,17.119-7.662,17.119-17.119c0-9.454-7.664-17.119-17.119-17.119
			c-9.455,0-17.119,7.664-17.119,17.119C471.819,540.89,479.483,548.552,488.937,548.552z"/>
		<path style="fill:#FFFFFF;stroke:#BABABA;stroke-width:5.1253;stroke-linecap:round;stroke-linejoin:round;" d="M650.693,387.514
			c58.68,0,106.248-47.569,106.248-106.248s-47.568-106.248-106.248-106.248c-58.68,0-106.248,47.569-106.248,106.248
			S592.013,387.514,650.693,387.514z"/>
		<path style="fill:none;stroke:#BABABA;stroke-width:5.1253;stroke-linecap:round;stroke-linejoin:round;" d="M726.138,358.351
			l28.292,28.292"/>
		<path style="fill:#FFFFFF;stroke:#BABABA;stroke-width:5.1253;stroke-linecap:round;stroke-linejoin:round;" d="M751.268,372.908
			l-8.78,9.188c-3.952,4.133-3.808,10.687,0.328,14.638l76.321,72.958c4.131,3.951,10.686,3.803,14.633-0.33l8.785-9.188
			c3.952-4.133,3.803-10.687-0.328-14.638l-76.321-72.958C761.775,368.627,755.219,368.775,751.268,372.908z"/>
	</g>
</g>
</svg>
