<?xml version="1.0" encoding="utf-8"?>
<!-- Generator: Adobe Illustrator 27.5.0, SVG Export Plug-In . SVG Version: 6.00 Build 0)  -->
<svg version="1.1" xmlns="http://www.w3.org/2000/svg" xmlns:xlink="http://www.w3.org/1999/xlink" x="0px" y="0px"
	 viewBox="0 0 1000 700" style="enable-background:new 0 0 1000 700;" xml:space="preserve">
<g id="Background">
	<rect style="fill:#FFFFFF;" width="1000" height="700"/>
</g>
<g id="Object">
	<g>
		<path style="fill:#CFCFCF;" d="M271.057,518.436c2.877,0,5.21-2.334,5.21-5.21s-2.333-5.21-5.21-5.21s-5.21,2.334-5.21,5.21
			S268.18,518.436,271.057,518.436z"/>
		<path style="fill:#F2F2F2;" d="M608.893,300.69c-44.495,0-89.788-1.807-132.157-13.609
			c-41.572-11.536-79.741-33.916-113.764-59.806c-22.274-16.852-42.529-30.302-71.448-28.281
			c-28.292,1.531-55.347,12.096-77.189,30.142c-36.787,32.215-31.258,91.915-16.533,133.699
			c22.115,63.102,89.416,107.066,146.617,135.506c66.079,33.013,138.696,52.204,211.473,63.208
			c63.793,9.728,145.766,16.746,201.054-24.879c50.768-38.329,64.697-125.725,52.257-184.733
			c-3.02-17.432-12.301-33.161-26.102-44.23c-35.671-26.102-88.885-8.665-128.968-7.815
			C639.247,300.212,624.097,300.584,608.893,300.69z"/>
		<path style="fill:#D2D2D2;" d="M516.234,568.141c33.147,0,60.018-26.873,60.018-60.018c0-33.147-26.871-60.018-60.018-60.018
			c-33.147,0-60.018,26.871-60.018,60.018C456.215,541.269,483.087,568.141,516.234,568.141z"/>
		<path style="fill:#FFFFFF;stroke:#BABABA;stroke-width:5.3161;stroke-linecap:round;stroke-linejoin:round;" d="M454.214,133.427
			c3.318-0.74,6.75-0.819,10.099-0.233c3.349,0.586,6.549,1.827,9.419,3.649c2.87,1.823,5.352,4.194,7.306,6.976
			c1.953,2.783,3.34,5.923,4.08,9.241l9.591,43.014l-50.641,11.291l-9.591-43.013c-0.742-3.327-0.819-6.768-0.228-10.126
			c0.591-3.357,1.839-6.564,3.673-9.438s4.217-5.356,7.013-7.306C447.731,135.533,450.884,134.154,454.214,133.427z"/>
		<path style="fill:#FFFFFF;stroke:#BABABA;stroke-width:5.3161;stroke-linecap:round;stroke-linejoin:round;" d="M690.813,470.857
			l-307.747,68.577c-1.912,0.431-3.902,0.351-5.775-0.223s-3.563-1.627-4.905-3.057c-1.341-1.425-2.288-3.179-2.746-5.082
			c-0.458-1.909-0.411-3.897,0.136-5.779l1.276-4.412c10.632-37.691,19.882-79.209,11.376-117.485l-18.181-81.655
			c-15.31-68.63,25.836-138.537,94.094-155.389c16.645-4.132,33.947-4.893,50.891-2.238c16.943,2.655,33.184,8.672,47.766,17.697
			c14.583,9.025,27.211,20.876,37.147,34.855s16.974,29.805,20.701,46.544l18.766,84.419c8.559,38.276,34.395,72.086,60.231,101.537
			l3.03,3.455c1.228,1.48,2.057,3.248,2.414,5.136c0.351,1.889,0.223,3.838-0.383,5.662c-0.606,1.824-1.669,3.464-3.083,4.765
			C694.407,469.487,692.679,470.407,690.813,470.857z"/>
		<path style="fill:none;stroke:#BABABA;stroke-width:5.3161;stroke-linecap:round;stroke-linejoin:round;" d="M463.179,418.228
			c-0.084-12.417,4.088-24.487,11.82-34.202c7.733-9.715,18.56-16.488,30.68-19.192c12.119-2.703,24.798-1.174,35.927,4.334
			c11.129,5.507,20.035,14.661,25.236,25.936"/>
		<path style="fill:#BABABA;" d="M558.124,331.949c4.169,0,7.549-3.38,7.549-7.549c0-4.169-3.38-7.549-7.549-7.549
			c-4.169,0-7.549,3.38-7.549,7.549C550.576,328.569,553.956,331.949,558.124,331.949z"/>
		<path style="fill:#BABABA;" d="M441.065,358.05c4.169,0,7.549-3.38,7.549-7.549c0-4.169-3.38-7.549-7.549-7.549
			c-4.169,0-7.549,3.38-7.549,7.549C433.516,354.671,436.895,358.05,441.065,358.05z"/>
		<path style="fill:#CFCFCF;" d="M581.834,125.419c2.876,0,5.21-2.333,5.21-5.21s-2.334-5.21-5.21-5.21
			c-2.876,0-5.21,2.333-5.21,5.21S578.958,125.419,581.834,125.419z"/>
		<path style="fill:#CFCFCF;" d="M271.057,518.436c2.877,0,5.21-2.334,5.21-5.21s-2.333-5.21-5.21-5.21s-5.21,2.334-5.21,5.21
			S268.18,518.436,271.057,518.436z"/>
		<path style="fill:none;stroke:#BABABA;stroke-width:5.3161;stroke-linecap:round;stroke-linejoin:round;" d="M725.793,246.041
			V268.9"/>
		<path style="fill:none;stroke:#BABABA;stroke-width:5.3161;stroke-linecap:round;stroke-linejoin:round;" d="M714.364,257.471
			h22.859"/>
		<path style="fill:none;stroke:#BABABA;stroke-width:5.3161;stroke-linecap:round;stroke-linejoin:round;" d="M736.213,590.203
			v22.859"/>
		<path style="fill:none;stroke:#BABABA;stroke-width:5.3161;stroke-linecap:round;stroke-linejoin:round;" d="M724.783,601.633
			h22.859"/>
		<path style="fill:none;stroke:#BABABA;stroke-width:5.3161;stroke-linecap:round;stroke-linejoin:round;" d="M336.551,159.389
			v22.859"/>
		<path style="fill:none;stroke:#BABABA;stroke-width:5.3161;stroke-linecap:round;stroke-linejoin:round;" d="M325.121,170.819
			h22.859"/>
		<path style="fill:#F2F2F2;" d="M502.146,665c107.778,0,195.153-5.449,195.153-12.174s-87.375-12.174-195.153-12.174
			c-107.78,0-195.153,5.449-195.153,12.174S394.366,665,502.146,665z"/>
		<path style="fill:#FFFFFF;stroke:#BABABA;stroke-width:5.3161;stroke-linecap:round;stroke-linejoin:round;" d="M688.581,233.07
			c-0.016,16.167-6.443,31.668-17.873,43.1c-11.435,11.432-26.937,17.861-43.103,17.875c-1.988-0.001-3.976-0.107-5.954-0.319
			l-18.075,29.504l-5.635-36.947c-9.388-5.229-17.235-12.847-22.73-22.083c-5.498-9.236-8.457-19.76-8.578-30.508
			c-0.12-10.747,2.603-21.336,7.893-30.692c5.293-9.356,12.958-17.148,22.23-22.586c9.271-5.438,19.818-8.328,30.562-8.379
			c10.749-0.05,21.323,2.742,30.642,8.093c9.324,5.351,17.065,13.071,22.439,22.377c5.38,9.306,8.203,19.869,8.181,30.617V233.07z"
			/>
		<path style="fill:#D2D2D2;stroke:#D2D2D2;stroke-width:5.3161;stroke-miterlimit:10;" d="M601.557,239.236
			c3.408,0,6.167-2.761,6.167-6.167c0-3.405-2.759-6.167-6.167-6.167s-6.167,2.761-6.167,6.167
			C595.39,236.476,598.149,239.236,601.557,239.236z"/>
		<path style="fill:#D2D2D2;stroke:#D2D2D2;stroke-width:5.3161;stroke-miterlimit:10;" d="M627.605,239.236
			c3.408,0,6.167-2.761,6.167-6.167c0-3.405-2.759-6.167-6.167-6.167s-6.167,2.761-6.167,6.167
			C621.439,236.476,624.198,239.236,627.605,239.236z"/>
		<path style="fill:#D2D2D2;stroke:#D2D2D2;stroke-width:5.3161;stroke-miterlimit:10;" d="M653.654,239.236
			c3.408,0,6.167-2.761,6.167-6.167c0-3.405-2.759-6.167-6.167-6.167s-6.167,2.761-6.167,6.167
			C647.487,236.476,650.246,239.236,653.654,239.236z"/>
	</g>
</g>
</svg>
